<svg width="142" height="151" viewBox="0 0 142 151" fill="none" xmlns="http://www.w3.org/2000/svg">
<g filter="url(#filter0_d_107_21)">
<circle cx="71.2854" cy="68.2855" r="50" fill="#D9D9D9"/>
<circle cx="71.2854" cy="68.2855" r="49.5" stroke="black"/>
</g>
<g filter="url(#filter1_d_107_21)">
<path d="M46.4776 24.6921L121.168 68.5245L45.863 111.292L46.4776 24.6921Z" fill="black"/>
</g>
<g filter="url(#filter2_d_107_21)">
<path d="M4.7014 127.669C4.7014 126.933 4.9894 126.349 5.5654 125.917C6.1414 125.469 6.9254 125.245 7.9174 125.245L12.9574 137.917L12.4054 139.429L12.6454 139.525L18.0454 125.269C19.0214 125.269 19.7974 125.493 20.3734 125.941C20.9654 126.373 21.2614 126.957 21.2614 127.693V142.501C19.1654 142.501 18.1174 141.717 18.1174 140.149V132.469L18.9334 130.261L18.6694 130.165L14.2774 141.637C14.1654 141.893 13.9894 142.101 13.7494 142.261C13.5254 142.421 13.2694 142.501 12.9814 142.501C12.6934 142.501 12.4294 142.421 12.1894 142.261C11.9654 142.101 11.7974 141.885 11.6854 141.613L7.2934 130.141L7.0294 130.237L7.8214 132.445V140.149C7.8214 141.717 6.7814 142.501 4.7014 142.501V127.669ZM24.0842 126.949C24.0842 126.549 24.2362 126.205 24.5402 125.917C24.8602 125.629 25.2442 125.485 25.6922 125.485H36.3962C36.3962 126.445 36.2282 127.149 35.8922 127.597C35.5722 128.029 35.0442 128.245 34.3082 128.245H27.3002V132.421H33.6842C33.6842 133.381 33.5162 134.085 33.1802 134.533C32.8602 134.965 32.3322 135.181 31.5962 135.181H27.3002V139.525H34.8122C35.5322 139.525 36.0522 139.749 36.3722 140.197C36.7082 140.629 36.8762 141.325 36.8762 142.285H25.6922C25.2442 142.285 24.8602 142.149 24.5402 141.877C24.2362 141.589 24.0842 141.237 24.0842 140.821V126.949ZM40.8814 142.285C40.4174 142.285 40.0174 142.117 39.6814 141.781C39.3614 141.445 39.2014 141.045 39.2014 140.581V127.645C39.2014 126.845 39.4654 126.253 39.9934 125.869C40.5214 125.469 41.3294 125.269 42.4174 125.269V139.501H48.8974C49.6494 139.501 50.2174 139.741 50.6014 140.221C50.9854 140.685 51.1774 141.373 51.1774 142.285H40.8814ZM53.7439 127.669C53.7439 126.917 54.0239 126.333 54.5839 125.917C55.1439 125.485 55.9359 125.269 56.9599 125.269V140.101C56.9599 140.869 56.6799 141.461 56.1199 141.877C55.5599 142.293 54.7679 142.501 53.7439 142.501V127.669ZM60.2483 127.813C60.2483 127.029 60.5123 126.413 61.0403 125.965C61.5683 125.501 62.2803 125.269 63.1763 125.269L71.2883 137.941L71.5283 137.749L70.5443 136.117V125.269C71.5843 125.269 72.3683 125.469 72.8963 125.869C73.4403 126.269 73.7123 126.861 73.7123 127.645V140.317C73.7123 140.909 73.4563 141.421 72.9443 141.853C72.4483 142.285 71.8723 142.501 71.2163 142.501L62.6723 129.133L62.4323 129.349L63.4163 130.981V140.125C63.4163 140.909 63.1443 141.501 62.6003 141.901C62.0723 142.301 61.2883 142.501 60.2483 142.501V127.813ZM80.9445 128.269H75.1605C75.1605 126.413 76.0005 125.485 77.6805 125.485H89.9445C89.9445 127.341 89.0965 128.269 87.4005 128.269H84.1605V140.125C84.1605 140.893 83.8885 141.485 83.3445 141.901C82.8005 142.301 82.0005 142.501 80.9445 142.501V128.269ZM98.9661 142.501C97.6221 142.501 96.4061 142.229 95.3181 141.685C94.2461 141.141 93.4061 140.389 92.7981 139.429C92.1901 138.469 91.8861 137.381 91.8861 136.165V127.645C91.8861 126.877 92.1581 126.293 92.7021 125.893C93.2461 125.477 94.0461 125.269 95.1021 125.269V136.165C95.1021 137.237 95.4541 138.093 96.1581 138.733C96.8621 139.373 97.7981 139.693 98.9661 139.693C100.134 139.693 101.07 139.373 101.774 138.733C102.478 138.093 102.83 137.237 102.83 136.165V127.645C102.83 126.861 103.102 126.269 103.646 125.869C104.19 125.469 104.99 125.269 106.046 125.269V136.165C106.046 137.381 105.742 138.469 105.134 139.429C104.526 140.389 103.678 141.141 102.59 141.685C101.518 142.229 100.31 142.501 98.9661 142.501ZM110.348 142.285C109.916 142.285 109.54 142.141 109.22 141.853C108.9 141.565 108.74 141.221 108.74 140.821V126.949C108.74 126.549 108.892 126.205 109.196 125.917C109.516 125.629 109.9 125.485 110.348 125.485H116.804C118.34 125.485 119.564 125.917 120.476 126.781C121.404 127.629 121.868 128.773 121.868 130.213C121.868 130.901 121.684 131.557 121.316 132.181C120.948 132.789 120.46 133.261 119.852 133.597V133.669C120.684 133.957 121.34 134.429 121.82 135.085C122.316 135.741 122.564 136.493 122.564 137.341C122.564 138.301 122.34 139.157 121.892 139.909C121.444 140.661 120.82 141.245 120.02 141.661C119.22 142.077 118.308 142.285 117.284 142.285H110.348ZM116.756 132.541C117.284 132.541 117.732 132.325 118.1 131.893C118.484 131.461 118.676 130.941 118.676 130.333C118.676 129.677 118.5 129.157 118.148 128.773C117.812 128.389 117.348 128.197 116.756 128.197H111.86V132.541H116.756ZM117.236 139.573C117.892 139.573 118.412 139.381 118.796 138.997C119.18 138.597 119.372 138.053 119.372 137.365C119.372 136.693 119.18 136.173 118.796 135.805C118.428 135.421 117.908 135.229 117.236 135.229H111.86V139.573H117.236ZM124.889 126.949C124.889 126.549 125.041 126.205 125.345 125.917C125.665 125.629 126.049 125.485 126.497 125.485H137.201C137.201 126.445 137.033 127.149 136.697 127.597C136.377 128.029 135.849 128.245 135.113 128.245H128.105V132.421H134.489C134.489 133.381 134.321 134.085 133.985 134.533C133.665 134.965 133.137 135.181 132.401 135.181H128.105V139.525H135.617C136.337 139.525 136.857 139.749 137.177 140.197C137.513 140.629 137.681 141.325 137.681 142.285H126.497C126.049 142.285 125.665 142.149 125.345 141.877C125.041 141.589 124.889 141.237 124.889 140.821V126.949Z" fill="black"/>
</g>
<defs>
<filter id="filter0_d_107_21" x="17.2854" y="18.2855" width="108" height="108" filterUnits="userSpaceOnUse" color-interpolation-filters="sRGB">
<feFlood flood-opacity="0" result="BackgroundImageFix"/>
<feColorMatrix in="SourceAlpha" type="matrix" values="0 0 0 0 0 0 0 0 0 0 0 0 0 0 0 0 0 0 127 0" result="hardAlpha"/>
<feOffset dy="4"/>
<feGaussianBlur stdDeviation="2"/>
<feComposite in2="hardAlpha" operator="out"/>
<feColorMatrix type="matrix" values="0 0 0 0 0 0 0 0 0 0 0 0 0 0 0 0 0 0 0.25 0"/>
<feBlend mode="normal" in2="BackgroundImageFix" result="effect1_dropShadow_107_21"/>
<feBlend mode="normal" in="SourceGraphic" in2="effect1_dropShadow_107_21" result="shape"/>
</filter>
<filter id="filter1_d_107_21" x="41.863" y="24.6921" width="83.3054" height="94.6004" filterUnits="userSpaceOnUse" color-interpolation-filters="sRGB">
<feFlood flood-opacity="0" result="BackgroundImageFix"/>
<feColorMatrix in="SourceAlpha" type="matrix" values="0 0 0 0 0 0 0 0 0 0 0 0 0 0 0 0 0 0 127 0" result="hardAlpha"/>
<feOffset dy="4"/>
<feGaussianBlur stdDeviation="2"/>
<feComposite in2="hardAlpha" operator="out"/>
<feColorMatrix type="matrix" values="0 0 0 0 0 0 0 0 0 0 0 0 0 0 0 0 0 0 0.25 0"/>
<feBlend mode="normal" in2="BackgroundImageFix" result="effect1_dropShadow_107_21"/>
<feBlend mode="normal" in="SourceGraphic" in2="effect1_dropShadow_107_21" result="shape"/>
</filter>
<filter id="filter2_d_107_21" x="0.701385" y="125.245" width="140.979" height="25.256" filterUnits="userSpaceOnUse" color-interpolation-filters="sRGB">
<feFlood flood-opacity="0" result="BackgroundImageFix"/>
<feColorMatrix in="SourceAlpha" type="matrix" values="0 0 0 0 0 0 0 0 0 0 0 0 0 0 0 0 0 0 127 0" result="hardAlpha"/>
<feOffset dy="4"/>
<feGaussianBlur stdDeviation="2"/>
<feComposite in2="hardAlpha" operator="out"/>
<feColorMatrix type="matrix" values="0 0 0 0 0 0 0 0 0 0 0 0 0 0 0 0 0 0 0.3 0"/>
<feBlend mode="normal" in2="BackgroundImageFix" result="effect1_dropShadow_107_21"/>
<feBlend mode="normal" in="SourceGraphic" in2="effect1_dropShadow_107_21" result="shape"/>
</filter>
</defs>
</svg>
