<svg width="166" height="173" viewBox="0 0 166 173" fill="none" xmlns="http://www.w3.org/2000/svg">
<circle cx="83" cy="95" r="49.5" fill="#3F6CC2" stroke="black"/>
<path d="M84.09 143.215C75.99 143.215 68.925 142.225 62.895 140.245C56.865 138.265 52.23 135.475 48.99 131.875C45.84 128.185 44.265 123.91 44.265 119.05C44.265 111.67 49.26 107.98 59.25 107.98C59.61 114.82 61.905 119.995 66.135 123.505C70.455 127.015 76.485 128.77 84.225 128.77C90.615 128.77 95.565 127.69 99.075 125.53C102.585 123.28 104.34 120.175 104.34 116.215C104.34 113.605 103.665 111.49 102.315 109.87C100.965 108.16 98.67 106.675 95.43 105.415C92.19 104.065 87.465 102.715 81.255 101.365C72.435 99.295 65.46 97 60.33 94.48C55.29 91.96 51.645 88.945 49.395 85.435C47.145 81.835 46.02 77.38 46.02 72.07C46.02 66.94 47.505 62.44 50.475 58.57C53.535 54.7 57.81 51.685 63.3 49.525C68.88 47.365 75.27 46.285 82.47 46.285C89.4 46.285 95.565 47.23 100.965 49.12C106.455 50.92 110.73 53.485 113.79 56.815C116.94 60.145 118.515 63.97 118.515 68.29C118.515 74.95 113.7 78.415 104.07 78.685C103.53 72.475 101.55 67.93 98.13 65.05C94.71 62.17 89.49 60.73 82.47 60.73C76.44 60.73 71.805 61.72 68.565 63.7C65.325 65.68 63.705 68.47 63.705 72.07C63.705 74.59 64.335 76.705 65.595 78.415C66.855 80.035 68.97 81.475 71.94 82.735C74.91 83.905 79.14 85.12 84.63 86.38C93.9 88.45 101.235 90.79 106.635 93.4C112.035 95.92 115.95 99.025 118.38 102.715C120.81 106.315 122.025 110.77 122.025 116.08C122.025 121.57 120.45 126.385 117.3 130.525C114.24 134.575 109.83 137.725 104.07 139.975C98.4 142.135 91.74 143.215 84.09 143.215Z" fill="#45BDAF"/>
<path d="M62.895 140.245L62.583 141.195L62.583 141.195L62.895 140.245ZM48.99 131.875L48.2294 132.524L48.2379 132.534L48.2467 132.544L48.99 131.875ZM59.25 107.98L60.2486 107.927L60.1988 106.98H59.25V107.98ZM66.135 123.505L65.4964 124.275L65.5044 124.281L66.135 123.505ZM99.075 125.53L99.5991 126.382L99.6069 126.377L99.6147 126.372L99.075 125.53ZM102.315 109.87L101.53 110.49L101.538 110.5L101.547 110.51L102.315 109.87ZM95.43 105.415L95.0454 106.338L95.0564 106.343L95.0676 106.347L95.43 105.415ZM81.255 101.365L81.0265 102.339L81.0345 102.34L81.0426 102.342L81.255 101.365ZM60.33 94.48L59.8828 95.3744L59.8891 95.3776L60.33 94.48ZM49.395 85.435L48.5469 85.965L48.5531 85.9747L49.395 85.435ZM50.475 58.57L49.6906 57.9498L49.6861 57.9554L49.6817 57.9612L50.475 58.57ZM63.3 49.525L62.939 48.5924L62.9339 48.5944L63.3 49.525ZM100.965 49.12L100.635 50.0639L100.644 50.0671L100.653 50.0702L100.965 49.12ZM113.79 56.815L113.054 57.4916L113.059 57.4969L113.064 57.5022L113.79 56.815ZM104.07 78.685L103.074 78.7716L103.155 79.711L104.098 79.6846L104.07 78.685ZM98.13 65.05L98.7741 64.2851L98.7741 64.2851L98.13 65.05ZM68.565 63.7L68.0436 62.8467L68.0436 62.8467L68.565 63.7ZM65.595 78.415L64.7899 79.0082L64.7977 79.0187L64.8056 79.0289L65.595 78.415ZM71.94 82.735L71.5495 83.6556L71.5614 83.6606L71.5735 83.6654L71.94 82.735ZM84.63 86.38L84.4063 87.3547L84.4121 87.356L84.63 86.38ZM106.635 93.4L106.2 94.3004L106.212 94.3062L106.635 93.4ZM118.38 102.715L117.545 103.265L117.551 103.274L118.38 102.715ZM117.3 130.525L116.504 129.919L116.502 129.922L117.3 130.525ZM104.07 139.975L104.426 140.91L104.434 140.906L104.07 139.975ZM84.09 142.215C76.0682 142.215 69.1129 141.234 63.207 139.295L62.583 141.195C68.7371 143.216 75.9118 144.215 84.09 144.215V142.215ZM63.207 139.295C57.2928 137.353 52.8257 134.642 49.7333 131.206L48.2467 132.544C51.6343 136.308 56.4372 139.177 62.583 141.195L63.207 139.295ZM49.7506 131.226C46.7554 127.717 45.265 123.672 45.265 119.05H43.265C43.265 124.148 44.9246 128.653 48.2294 132.524L49.7506 131.226ZM45.265 119.05C45.265 115.61 46.413 113.171 48.6054 111.552C50.8545 109.89 54.3488 108.98 59.25 108.98V106.98C54.1612 106.98 50.163 107.915 47.4171 109.943C44.6145 112.014 43.265 115.11 43.265 119.05H45.265ZM58.2514 108.033C58.6222 115.078 61.0008 120.544 65.4964 124.275L66.7736 122.735C62.8092 119.446 60.5978 114.562 60.2486 107.927L58.2514 108.033ZM65.5044 124.281C70.0611 127.983 76.3439 129.77 84.225 129.77V127.77C76.6261 127.77 70.8489 126.047 66.7656 122.729L65.5044 124.281ZM84.225 129.77C90.7065 129.77 95.8673 128.678 99.5991 126.382L98.5509 124.678C95.2627 126.702 90.5235 127.77 84.225 127.77V129.77ZM99.6147 126.372C103.393 123.95 105.34 120.537 105.34 116.215H103.34C103.34 119.813 101.777 122.61 98.5353 124.688L99.6147 126.372ZM105.34 116.215C105.34 113.428 104.616 111.069 103.083 109.23L101.547 110.51C102.714 111.911 103.34 113.782 103.34 116.215H105.34ZM103.1 109.25C101.592 107.341 99.1091 105.773 95.7924 104.483L95.0676 106.347C98.2309 107.577 100.338 108.979 101.53 110.49L103.1 109.25ZM95.8146 104.492C92.4913 103.107 87.6972 101.742 81.4674 100.388L81.0426 102.342C87.2328 103.688 91.8887 105.023 95.0454 106.338L95.8146 104.492ZM81.4835 100.391C72.6996 98.3299 65.8058 96.0557 60.7709 93.5824L59.8891 95.3776C65.1142 97.9443 72.1704 100.26 81.0265 102.339L81.4835 100.391ZM60.7772 93.5856C55.8437 91.1188 52.3613 88.2094 50.2369 84.8953L48.5531 85.9747C50.9287 89.6806 54.7363 92.8012 59.8828 95.3744L60.7772 93.5856ZM50.243 84.905C48.1145 81.4994 47.02 77.2393 47.02 72.07H45.02C45.02 77.5206 46.1755 82.1706 48.547 85.965L50.243 84.905ZM47.02 72.07C47.02 67.148 48.4396 62.8647 51.2683 59.1788L49.6817 57.9612C46.5704 62.0152 45.02 66.732 45.02 72.07H47.02ZM51.2594 59.1902C54.1902 55.4837 58.3082 52.5636 63.6661 50.4556L62.9339 48.5944C57.3118 50.8064 52.8798 53.9163 49.6906 57.9498L51.2594 59.1902ZM63.661 50.4576C69.1051 48.3502 75.369 47.285 82.47 47.285V45.285C75.171 45.285 68.6549 46.3798 62.939 48.5924L63.661 50.4576ZM82.47 47.285C89.3105 47.285 95.3606 48.2179 100.635 50.0639L101.295 48.1761C95.7694 46.2421 89.4895 45.285 82.47 45.285V47.285ZM100.653 50.0702C106.025 51.8314 110.137 54.318 113.054 57.4916L114.526 56.1384C111.323 52.652 106.885 50.0086 101.277 48.1698L100.653 50.0702ZM113.064 57.5022C116.05 60.659 117.515 64.2423 117.515 68.29H119.515C119.515 63.6977 117.83 59.631 114.516 56.1278L113.064 57.5022ZM117.515 68.29C117.515 71.3439 116.431 73.5526 114.32 75.0721C112.147 76.6354 108.771 77.5528 104.042 77.6854L104.098 79.6846C108.999 79.5472 112.845 78.5971 115.488 76.6954C118.191 74.7499 119.515 71.8961 119.515 68.29H117.515ZM105.066 78.5984C104.512 72.2302 102.465 67.3936 98.7741 64.2851L97.4859 65.8149C100.635 68.4664 102.548 72.7198 103.074 78.7716L105.066 78.5984ZM98.7741 64.2851C95.0959 61.1876 89.5985 59.73 82.47 59.73V61.73C89.3815 61.73 94.3241 63.1523 97.4859 65.8149L98.7741 64.2851ZM82.47 59.73C76.3544 59.73 71.5074 60.7299 68.0436 62.8467L69.0865 64.5533C72.1026 62.7101 76.5256 61.73 82.47 61.73V59.73ZM68.0436 62.8467C64.526 64.9963 62.705 68.0991 62.705 72.07H64.705C64.705 68.8409 66.124 66.3637 69.0865 64.5533L68.0436 62.8467ZM62.705 72.07C62.705 74.7625 63.381 77.096 64.7899 79.0082L66.4001 77.8218C65.289 76.314 64.705 74.4175 64.705 72.07H62.705ZM64.8056 79.0289C66.2137 80.8392 68.5039 82.3635 71.5495 83.6556L72.3306 81.8144C69.4361 80.5865 67.4963 79.2308 66.3844 77.8011L64.8056 79.0289ZM71.5735 83.6654C74.6121 84.8625 78.8984 86.0905 84.4063 87.3547L84.8537 85.4053C79.3816 84.1494 75.2079 82.9475 72.3065 81.8046L71.5735 83.6654ZM84.4121 87.356C93.6451 89.4177 100.897 91.7374 106.2 94.3003L107.07 92.4996C101.573 89.8426 94.1549 87.4823 84.8479 85.404L84.4121 87.356ZM106.212 94.3062C111.501 96.7743 115.246 99.7746 117.545 103.265L119.215 102.165C116.654 98.2754 112.569 95.0657 107.058 92.4938L106.212 94.3062ZM117.551 103.274C119.847 106.676 121.025 110.925 121.025 116.08H123.025C123.025 110.615 121.773 105.954 119.209 102.156L117.551 103.274ZM121.025 116.08C121.025 121.364 119.514 125.964 116.504 129.919L118.096 131.131C121.386 126.806 123.025 121.776 123.025 116.08H121.025ZM116.502 129.922C113.576 133.795 109.332 136.846 103.706 139.044L104.434 140.906C110.328 138.604 114.904 135.355 118.098 131.128L116.502 129.922ZM103.714 139.041C98.183 141.148 91.6488 142.215 84.09 142.215V144.215C91.8312 144.215 98.617 143.122 104.426 140.909L103.714 139.041Z" fill="black"/>
<path d="M1.416 154.664C1.416 154.248 1.568 153.904 1.872 153.632C2.176 153.344 2.56 153.2 3.024 153.2H9.432C11.16 153.2 12.496 153.656 13.44 154.568C14.4 155.48 14.88 156.76 14.88 158.408C14.88 159.352 14.688 160.152 14.304 160.808C13.92 161.448 13.336 161.96 12.552 162.344V162.416C13.96 163.04 14.664 164.224 14.664 165.968V167.84C14.664 168.608 14.392 169.2 13.848 169.616C13.304 170.016 12.504 170.216 11.448 170.216V166.112C11.448 165.264 11.28 164.64 10.944 164.24C10.608 163.84 10.096 163.64 9.408 163.64H4.584V167.84C4.584 168.624 4.312 169.216 3.768 169.616C3.24 170.016 2.456 170.216 1.416 170.216V154.664ZM9.264 160.904C10.032 160.904 10.624 160.688 11.04 160.256C11.456 159.808 11.664 159.184 11.664 158.384C11.664 156.752 10.864 155.936 9.264 155.936H4.584V160.904H9.264ZM19.1747 170.216C18.4867 170.136 17.9427 169.896 17.5427 169.496C17.1587 169.096 16.9667 168.592 16.9667 167.984C16.9667 167.52 17.0787 167.04 17.3027 166.544L22.7987 154.04C23.1027 153.336 23.6307 152.984 24.3827 152.984C25.1187 152.984 25.6387 153.336 25.9427 154.04L31.4387 166.544C31.6627 167.072 31.7747 167.552 31.7747 167.984C31.7747 168.592 31.5747 169.096 31.1747 169.496C30.7907 169.896 30.2467 170.136 29.5427 170.216L27.5267 165.656H21.2147L19.1747 170.216ZM26.5427 162.92L23.9027 156.344L23.6147 156.464L24.1907 157.952L22.1747 162.92H26.5427ZM24.4307 148.376C24.5267 148.12 24.7187 147.912 25.0067 147.752C25.2947 147.592 25.6947 147.512 26.2067 147.512H28.2707L25.7987 151.328C25.6387 151.536 25.4307 151.696 25.1747 151.808C24.9187 151.904 24.5027 151.952 23.9267 151.952C23.6067 151.952 23.3427 151.944 23.1347 151.928L24.4307 148.376ZM35.7193 170C35.2713 170 34.8873 169.864 34.5673 169.592C34.2633 169.304 34.1113 168.952 34.1113 168.536V154.664C34.1113 154.248 34.2633 153.904 34.5673 153.632C34.8713 153.344 35.2553 153.2 35.7193 153.2H41.0473C42.4713 153.2 43.7273 153.472 44.8153 154.016C45.9193 154.56 46.7673 155.328 47.3593 156.32C47.9673 157.296 48.2713 158.416 48.2713 159.68V163.472C48.2713 164.736 47.9673 165.864 47.3593 166.856C46.7513 167.848 45.8953 168.624 44.7913 169.184C43.7033 169.728 42.4553 170 41.0473 170H35.7193ZM40.8073 167.24C42.1993 167.24 43.2553 166.928 43.9753 166.304C44.6953 165.664 45.0553 164.728 45.0553 163.496V159.632C45.0553 158.432 44.6953 157.52 43.9753 156.896C43.2553 156.272 42.1993 155.96 40.8073 155.96H37.3273V167.24H40.8073ZM51.1616 155.384C51.1616 154.632 51.4416 154.048 52.0016 153.632C52.5616 153.2 53.3536 152.984 54.3776 152.984V167.816C54.3776 168.584 54.0976 169.176 53.5376 169.592C52.9776 170.008 52.1856 170.216 51.1616 170.216V155.384ZM64.29 170.216C62.978 170.216 61.778 169.96 60.69 169.448C59.602 168.92 58.738 168.208 58.098 167.312C57.474 166.416 57.162 165.44 57.162 164.384V158.792C57.162 157.736 57.474 156.768 58.098 155.888C58.738 154.992 59.602 154.288 60.69 153.776C61.778 153.248 62.978 152.984 64.29 152.984C65.602 152.984 66.802 153.248 67.89 153.776C68.994 154.288 69.858 154.992 70.482 155.888C71.122 156.768 71.442 157.736 71.442 158.792V164.384C71.442 165.44 71.122 166.416 70.482 167.312C69.858 168.208 68.994 168.92 67.89 169.448C66.802 169.96 65.602 170.216 64.29 170.216ZM64.29 167.408C65.49 167.408 66.45 167.128 67.17 166.568C67.89 165.992 68.25 165.248 68.25 164.336V158.864C68.25 157.936 67.89 157.192 67.17 156.632C66.45 156.056 65.49 155.768 64.29 155.768C63.106 155.768 62.154 156.056 61.434 156.632C60.714 157.192 60.354 157.936 60.354 158.864V164.336C60.354 165.248 60.714 165.992 61.434 166.568C62.154 167.128 63.106 167.408 64.29 167.408ZM86.5551 170.216C85.1151 170.216 83.8591 170.04 82.7871 169.688C81.7151 169.336 80.8911 168.84 80.3151 168.2C79.7551 167.544 79.4751 166.784 79.4751 165.92C79.4751 164.608 80.3631 163.952 82.1391 163.952C82.2031 165.168 82.6111 166.088 83.3631 166.712C84.1311 167.336 85.2031 167.648 86.5791 167.648C87.7151 167.648 88.5951 167.456 89.2191 167.072C89.8431 166.672 90.1551 166.12 90.1551 165.416C90.1551 164.952 90.0351 164.576 89.7951 164.288C89.5551 163.984 89.1471 163.72 88.5711 163.496C87.9951 163.256 87.1551 163.016 86.0511 162.776C84.4831 162.408 83.2431 162 82.3311 161.552C81.4351 161.104 80.7871 160.568 80.3871 159.944C79.9871 159.304 79.7871 158.512 79.7871 157.568C79.7871 156.656 80.0511 155.856 80.5791 155.168C81.1231 154.48 81.8831 153.944 82.8591 153.56C83.8511 153.176 84.9871 152.984 86.2671 152.984C87.4991 152.984 88.5951 153.152 89.5551 153.488C90.5311 153.808 91.2911 154.264 91.8351 154.856C92.3951 155.448 92.6751 156.128 92.6751 156.896C92.6751 158.08 91.8191 158.696 90.1071 158.744C90.0111 157.64 89.6591 156.832 89.0511 156.32C88.4431 155.808 87.5151 155.552 86.2671 155.552C85.1951 155.552 84.3711 155.728 83.7951 156.08C83.2191 156.432 82.9311 156.928 82.9311 157.568C82.9311 158.016 83.0431 158.392 83.2671 158.696C83.4911 158.984 83.8671 159.24 84.3951 159.464C84.9231 159.672 85.6751 159.888 86.6511 160.112C88.2991 160.48 89.6031 160.896 90.5631 161.36C91.5231 161.808 92.2191 162.36 92.6511 163.016C93.0831 163.656 93.2991 164.448 93.2991 165.392C93.2991 166.368 93.0191 167.224 92.4591 167.96C91.9151 168.68 91.1311 169.24 90.1071 169.64C89.0991 170.024 87.9151 170.216 86.5551 170.216ZM99.5732 155.984H93.7892C93.7892 154.128 94.6292 153.2 96.3092 153.2H108.573C108.573 155.056 107.725 155.984 106.029 155.984H102.789V167.84C102.789 168.608 102.517 169.2 101.973 169.616C101.429 170.016 100.629 170.216 99.5732 170.216V155.984ZM111.115 155.384C111.115 154.632 111.395 154.048 111.955 153.632C112.515 153.2 113.307 152.984 114.331 152.984V167.816C114.331 168.584 114.051 169.176 113.491 169.592C112.931 170.008 112.139 170.216 111.115 170.216V155.384ZM117.619 155.528C117.619 154.744 117.883 154.128 118.411 153.68C118.939 153.216 119.651 152.984 120.547 152.984L128.659 165.656L128.899 165.464L127.915 163.832V152.984C128.955 152.984 129.739 153.184 130.267 153.584C130.811 153.984 131.083 154.576 131.083 155.36V168.032C131.083 168.624 130.827 169.136 130.315 169.568C129.819 170 129.243 170.216 128.587 170.216L120.043 156.848L119.803 157.064L120.787 158.696V167.84C120.787 168.624 120.515 169.216 119.971 169.616C119.443 170.016 118.659 170.216 117.619 170.216V155.528ZM133.885 154.664C133.885 154.264 134.037 153.92 134.341 153.632C134.661 153.344 135.045 153.2 135.493 153.2H146.197C146.197 154.16 146.029 154.864 145.693 155.312C145.373 155.744 144.845 155.96 144.109 155.96H137.101V160.136H143.485C143.485 161.096 143.317 161.8 142.981 162.248C142.661 162.68 142.133 162.896 141.397 162.896H137.101V167.24H144.613C145.333 167.24 145.853 167.464 146.173 167.912C146.509 168.344 146.677 169.04 146.677 170H135.493C135.045 170 134.661 169.864 134.341 169.592C134.037 169.304 133.885 168.952 133.885 168.536V154.664ZM149.002 154.664C149.002 154.248 149.154 153.904 149.458 153.632C149.762 153.344 150.146 153.2 150.61 153.2H157.018C158.746 153.2 160.082 153.656 161.026 154.568C161.986 155.48 162.466 156.76 162.466 158.408C162.466 159.352 162.274 160.152 161.89 160.808C161.506 161.448 160.922 161.96 160.138 162.344V162.416C161.546 163.04 162.25 164.224 162.25 165.968V167.84C162.25 168.608 161.978 169.2 161.434 169.616C160.89 170.016 160.09 170.216 159.034 170.216V166.112C159.034 165.264 158.866 164.64 158.53 164.24C158.194 163.84 157.682 163.64 156.994 163.64H152.17V167.84C152.17 168.624 151.898 169.216 151.354 169.616C150.826 170.016 150.042 170.216 149.002 170.216V154.664ZM156.85 160.904C157.618 160.904 158.21 160.688 158.626 160.256C159.042 159.808 159.25 159.184 159.25 158.384C159.25 156.752 158.45 155.936 156.85 155.936H152.17V160.904H156.85Z" fill="#45BDAF"/>
<path d="M1.872 153.632L2.5388 154.377L2.54941 154.368L2.55974 154.358L1.872 153.632ZM13.44 154.568L12.7452 155.287L12.7513 155.293L13.44 154.568ZM14.304 160.808L15.1615 161.323L15.167 161.313L14.304 160.808ZM12.552 162.344L12.1121 161.446L11.552 161.72V162.344H12.552ZM12.552 162.416H11.552V163.067L12.1468 163.33L12.552 162.416ZM13.848 169.616L14.4404 170.422L14.448 170.416L14.4555 170.41L13.848 169.616ZM11.448 170.216H10.448V171.216H11.448V170.216ZM4.584 163.64V162.64H3.584V163.64H4.584ZM3.768 169.616L3.17561 168.81L3.16985 168.815L3.16414 168.819L3.768 169.616ZM1.416 170.216H0.416V171.216H1.416V170.216ZM11.04 160.256L11.7603 160.95L11.7666 160.943L11.7728 160.936L11.04 160.256ZM4.584 155.936V154.936H3.584V155.936H4.584ZM4.584 160.904H3.584V161.904H4.584V160.904ZM2.416 154.664C2.416 154.526 2.45157 154.455 2.5388 154.377L1.2052 152.887C0.684434 153.353 0.416 153.97 0.416 154.664H2.416ZM2.55974 154.358C2.65727 154.266 2.78581 154.2 3.024 154.2V152.2C2.33419 152.2 1.69473 152.422 1.18426 152.906L2.55974 154.358ZM3.024 154.2H9.432V152.2H3.024V154.2ZM9.432 154.2C10.9855 154.2 12.0408 154.607 12.7452 155.287L14.1348 153.849C12.9512 152.705 11.3346 152.2 9.432 152.2V154.2ZM12.7513 155.293C13.466 155.972 13.88 156.963 13.88 158.408H15.88C15.88 156.557 15.334 154.988 14.1287 153.843L12.7513 155.293ZM13.88 158.408C13.88 159.217 13.716 159.833 13.441 160.303L15.167 161.313C15.66 160.471 15.88 159.487 15.88 158.408H13.88ZM13.4465 160.294C13.1777 160.742 12.7528 161.132 12.1121 161.446L12.9919 163.242C13.9192 162.788 14.6623 162.154 15.1615 161.322L13.4465 160.294ZM11.552 162.344V162.416H13.552V162.344H11.552ZM12.1468 163.33C12.6846 163.569 13.0428 163.89 13.2765 164.283C13.5151 164.684 13.664 165.229 13.664 165.968H15.664C15.664 164.963 15.4609 164.044 14.9955 163.261C14.5252 162.47 13.8274 161.887 12.9572 161.502L12.1468 163.33ZM13.664 165.968V167.84H15.664V165.968H13.664ZM13.664 167.84C13.664 168.34 13.5047 168.62 13.2406 168.822L14.4555 170.41C15.2793 169.78 15.664 168.876 15.664 167.84H13.664ZM13.2556 168.81C12.9557 169.031 12.403 169.216 11.448 169.216V171.216C12.605 171.216 13.6523 171.001 14.4404 170.422L13.2556 168.81ZM12.448 170.216V166.112H10.448V170.216H12.448ZM12.448 166.112C12.448 165.166 12.2664 164.26 11.7097 163.597L10.1783 164.883C10.2936 165.02 10.448 165.362 10.448 166.112H12.448ZM11.7097 163.597C11.1276 162.904 10.2914 162.64 9.408 162.64V164.64C9.90058 164.64 10.0884 164.776 10.1783 164.883L11.7097 163.597ZM9.408 162.64H4.584V164.64H9.408V162.64ZM3.584 163.64V167.84H5.584V163.64H3.584ZM3.584 167.84C3.584 168.364 3.41966 168.631 3.17561 168.81L4.36039 170.422C5.20434 169.801 5.584 168.884 5.584 167.84H3.584ZM3.16414 168.819C2.88403 169.031 2.3541 169.216 1.416 169.216V171.216C2.5579 171.216 3.59597 171.001 4.37186 170.413L3.16414 168.819ZM2.416 170.216V154.664H0.416V170.216H2.416ZM9.264 161.904C10.2234 161.904 11.1065 161.629 11.7603 160.95L10.3197 159.562C10.1415 159.747 9.8406 159.904 9.264 159.904V161.904ZM11.7728 160.936C12.4082 160.252 12.664 159.356 12.664 158.384H10.664C10.664 159.012 10.5038 159.364 10.3072 159.576L11.7728 160.936ZM12.664 158.384C12.664 157.419 12.4274 156.51 11.7781 155.848C11.1252 155.182 10.2232 154.936 9.264 154.936V156.936C9.90478 156.936 10.2028 157.098 10.3499 157.248C10.5006 157.402 10.664 157.717 10.664 158.384H12.664ZM9.264 154.936H4.584V156.936H9.264V154.936ZM3.584 155.936V160.904H5.584V155.936H3.584ZM4.584 161.904H9.264V159.904H4.584V161.904ZM19.1747 170.216L19.0592 171.209L19.7879 171.294L20.0875 170.624L19.1747 170.216ZM17.5427 169.496L16.8213 170.189L16.8284 170.196L16.8356 170.203L17.5427 169.496ZM17.3027 166.544L18.2141 166.956L18.2182 166.946L17.3027 166.544ZM22.7987 154.04L23.7142 154.442L23.7168 154.436L22.7987 154.04ZM25.9427 154.04L25.0246 154.436L25.0272 154.442L25.9427 154.04ZM31.4387 166.544L32.3593 166.153L32.3542 166.142L31.4387 166.544ZM31.1747 169.496L30.4676 168.789L30.4604 168.796L30.4533 168.803L31.1747 169.496ZM29.5427 170.216L28.6281 170.62L28.9253 171.293L29.6556 171.21L29.5427 170.216ZM27.5267 165.656L28.4413 165.252L28.178 164.656H27.5267V165.656ZM21.2147 165.656V164.656H20.5665L20.3019 165.248L21.2147 165.656ZM26.5427 162.92V163.92H28.0217L27.4707 162.547L26.5427 162.92ZM23.9027 156.344L24.8307 155.971L24.4533 155.031L23.5181 155.421L23.9027 156.344ZM23.6147 156.464L23.2301 155.541L22.3302 155.916L22.6821 156.825L23.6147 156.464ZM24.1907 157.952L25.1173 158.328L25.2664 157.961L25.1233 157.591L24.1907 157.952ZM22.1747 162.92L21.2481 162.544L20.6897 163.92H22.1747V162.92ZM24.4307 148.376L23.4943 148.025L23.4913 148.033L24.4307 148.376ZM28.2707 147.512L29.11 148.056L30.11 146.512H28.2707V147.512ZM25.7987 151.328L26.5913 151.938L26.616 151.906L26.638 151.872L25.7987 151.328ZM25.1747 151.808L25.5258 152.744L25.5509 152.735L25.5755 152.724L25.1747 151.808ZM23.1347 151.928L22.1953 151.585L21.7433 152.824L23.058 152.925L23.1347 151.928ZM19.2902 169.223C18.7743 169.163 18.4572 168.996 18.2498 168.789L16.8356 170.203C17.4282 170.796 18.199 171.109 19.0592 171.209L19.2902 169.223ZM18.2641 168.803C18.0769 168.608 17.9667 168.361 17.9667 167.984H15.9667C15.9667 168.823 16.2405 169.584 16.8213 170.189L18.2641 168.803ZM17.9667 167.984C17.9667 167.684 18.0385 167.344 18.2141 166.956L16.3913 166.132C16.1189 166.736 15.9667 167.356 15.9667 167.984H17.9667ZM18.2182 166.946L23.7142 154.442L21.8832 153.638L16.3872 166.142L18.2182 166.946ZM23.7168 154.436C23.8083 154.224 23.9048 154.128 23.9774 154.08C24.0487 154.033 24.1669 153.984 24.3827 153.984V151.984C23.8465 151.984 23.3247 152.111 22.868 152.416C22.4126 152.72 22.0931 153.152 21.8806 153.644L23.7168 154.436ZM24.3827 153.984C24.5861 153.984 24.6965 154.03 24.7641 154.076C24.8345 154.124 24.9314 154.221 25.0246 154.436L26.8608 153.644C26.65 153.155 26.3349 152.724 25.8853 152.42C25.4328 152.114 24.9153 151.984 24.3827 151.984V153.984ZM25.0272 154.442L30.5232 166.946L32.3542 166.142L26.8582 153.638L25.0272 154.442ZM30.5181 166.935C30.706 167.377 30.7747 167.722 30.7747 167.984H32.7747C32.7747 167.382 32.6194 166.767 32.3593 166.153L30.5181 166.935ZM30.7747 167.984C30.7747 168.349 30.6651 168.591 30.4676 168.789L31.8818 170.203C32.4843 169.601 32.7747 168.835 32.7747 167.984H30.7747ZM30.4533 168.803C30.2713 168.993 29.9678 169.161 29.4298 169.222L29.6556 171.21C30.5256 171.111 31.31 170.799 31.8961 170.189L30.4533 168.803ZM30.4573 169.812L28.4413 165.252L26.6121 166.06L28.6281 170.62L30.4573 169.812ZM27.5267 164.656H21.2147V166.656H27.5267V164.656ZM20.3019 165.248L18.2619 169.808L20.0875 170.624L22.1275 166.064L20.3019 165.248ZM27.4707 162.547L24.8307 155.971L22.9747 156.717L25.6147 163.293L27.4707 162.547ZM23.5181 155.421L23.2301 155.541L23.9993 157.387L24.2873 157.267L23.5181 155.421ZM22.6821 156.825L23.2581 158.313L25.1233 157.591L24.5473 156.103L22.6821 156.825ZM23.2641 157.576L21.2481 162.544L23.1013 163.296L25.1173 158.328L23.2641 157.576ZM22.1747 163.92H26.5427V161.92H22.1747V163.92ZM25.367 148.727C25.368 148.724 25.37 148.719 25.3815 148.706C25.3947 148.692 25.4264 148.663 25.4923 148.626L24.521 146.878C24.0699 147.128 23.69 147.503 23.4944 148.025L25.367 148.727ZM25.4923 148.626C25.5715 148.582 25.779 148.512 26.2067 148.512V146.512C25.6104 146.512 25.0179 146.602 24.521 146.878L25.4923 148.626ZM26.2067 148.512H28.2707V146.512H26.2067V148.512ZM27.4314 146.968L24.9594 150.784L26.638 151.872L29.11 148.056L27.4314 146.968ZM25.0061 150.718C24.9554 150.784 24.8859 150.843 24.7739 150.892L25.5755 152.724C25.9755 152.549 26.3219 152.288 26.5913 151.938L25.0061 150.718ZM24.8236 150.872C24.7471 150.9 24.4857 150.952 23.9267 150.952V152.952C24.5197 152.952 25.0903 152.908 25.5258 152.744L24.8236 150.872ZM23.9267 150.952C23.6203 150.952 23.3842 150.944 23.2114 150.931L23.058 152.925C23.3011 152.944 23.593 152.952 23.9267 152.952V150.952ZM24.0741 152.271L25.3701 148.719L23.4913 148.033L22.1953 151.585L24.0741 152.271ZM34.5673 169.592L33.8796 170.318L33.8991 170.336L33.9197 170.354L34.5673 169.592ZM34.5673 153.632L35.2341 154.377L35.2447 154.368L35.2551 154.358L34.5673 153.632ZM44.8153 154.016L44.3681 154.91L44.3733 154.913L44.8153 154.016ZM47.3593 156.32L46.5006 156.832L46.5055 156.841L46.5105 156.849L47.3593 156.32ZM47.3593 166.856L46.5067 166.333L46.5067 166.333L47.3593 166.856ZM44.7913 169.184L45.2385 170.078L45.2437 170.076L44.7913 169.184ZM43.9753 166.304L44.6303 167.06L44.6397 167.051L43.9753 166.304ZM43.9753 156.896L43.3204 157.652L43.3204 157.652L43.9753 156.896ZM37.3273 155.96V154.96H36.3273V155.96H37.3273ZM37.3273 167.24H36.3273V168.24H37.3273V167.24ZM35.7193 169C35.4915 169 35.3415 168.938 35.215 168.83L33.9197 170.354C34.4331 170.79 35.0511 171 35.7193 171V169ZM35.2551 168.866C35.1489 168.765 35.1113 168.675 35.1113 168.536H33.1113C33.1113 169.229 33.3777 169.843 33.8796 170.318L35.2551 168.866ZM35.1113 168.536V154.664H33.1113V168.536H35.1113ZM35.1113 154.664C35.1113 154.526 35.1469 154.455 35.2341 154.377L33.9005 152.887C33.3797 153.353 33.1113 153.97 33.1113 154.664H35.1113ZM35.2551 154.358C35.3526 154.266 35.4811 154.2 35.7193 154.2V152.2C35.0295 152.2 34.39 152.422 33.8796 152.906L35.2551 154.358ZM35.7193 154.2H41.0473V152.2H35.7193V154.2ZM41.0473 154.2C42.3425 154.2 43.4408 154.447 44.3681 154.91L45.2625 153.122C44.0138 152.497 42.6001 152.2 41.0473 152.2V154.2ZM44.3733 154.913C45.3161 155.378 46.0141 156.017 46.5006 156.832L48.218 155.808C47.5206 154.639 46.5226 153.742 45.2573 153.119L44.3733 154.913ZM46.5105 156.849C47.01 157.651 47.2713 158.584 47.2713 159.68H49.2713C49.2713 158.248 48.9246 156.941 48.2081 155.791L46.5105 156.849ZM47.2713 159.68V163.472H49.2713V159.68H47.2713ZM47.2713 163.472C47.2713 164.568 47.01 165.512 46.5067 166.333L48.2119 167.379C48.9246 166.216 49.2713 164.904 49.2713 163.472H47.2713ZM46.5067 166.333C46.0016 167.157 45.2889 167.81 44.3389 168.292L45.2437 170.076C46.5017 169.438 47.501 168.539 48.2119 167.379L46.5067 166.333ZM44.3441 168.29C43.4153 168.754 42.3245 169 41.0473 169V171C42.5861 171 43.9913 170.702 45.2385 170.078L44.3441 168.29ZM41.0473 169H35.7193V171H41.0473V169ZM40.8073 168.24C42.3314 168.24 43.6605 167.9 44.6302 167.06L43.3204 165.548C42.8501 165.956 42.0672 166.24 40.8073 166.24V168.24ZM44.6397 167.051C45.6294 166.172 46.0553 164.929 46.0553 163.496H44.0553C44.0553 164.527 43.7612 165.156 43.3109 165.557L44.6397 167.051ZM46.0553 163.496V159.632H44.0553V163.496H46.0553ZM46.0553 159.632C46.0553 158.223 45.6241 157.002 44.6302 156.14L43.3204 157.652C43.7665 158.038 44.0553 158.641 44.0553 159.632H46.0553ZM44.6302 156.14C43.6605 155.3 42.3314 154.96 40.8073 154.96V156.96C42.0672 156.96 42.8501 157.244 43.3204 157.652L44.6302 156.14ZM40.8073 154.96H37.3273V156.96H40.8073V154.96ZM36.3273 155.96V167.24H38.3273V155.96H36.3273ZM37.3273 168.24H40.8073V166.24H37.3273V168.24ZM52.0016 153.632L52.5979 154.435L52.6052 154.429L52.6124 154.424L52.0016 153.632ZM54.3776 152.984H55.3776V151.984H54.3776V152.984ZM53.5376 169.592L52.9413 168.789L52.9413 168.789L53.5376 169.592ZM51.1616 170.216H50.1616V171.216H51.1616V170.216ZM52.1616 155.384C52.1616 154.92 52.3141 154.646 52.5979 154.435L51.4053 152.829C50.5692 153.45 50.1616 154.344 50.1616 155.384H52.1616ZM52.6124 154.424C52.9344 154.175 53.4789 153.984 54.3776 153.984V151.984C53.2283 151.984 52.1889 152.225 51.3908 152.84L52.6124 154.424ZM53.3776 152.984V167.816H55.3776V152.984H53.3776ZM53.3776 167.816C53.3776 168.305 53.2191 168.583 52.9413 168.789L54.1339 170.395C54.9761 169.769 55.3776 168.863 55.3776 167.816H53.3776ZM52.9413 168.789C52.6176 169.03 52.067 169.216 51.1616 169.216V171.216C52.3042 171.216 53.3376 170.986 54.1339 170.395L52.9413 168.789ZM52.1616 170.216V155.384H50.1616V170.216H52.1616ZM60.69 169.448L60.2534 170.348L60.2642 170.353L60.69 169.448ZM58.098 167.312L57.2773 167.884L57.2843 167.893L58.098 167.312ZM58.098 155.888L57.2843 155.307L57.2823 155.31L58.098 155.888ZM60.69 153.776L61.1158 154.681L61.1266 154.676L60.69 153.776ZM67.89 153.776L67.4534 154.676L67.4613 154.679L67.4693 154.683L67.89 153.776ZM70.482 155.888L69.6614 156.459L69.6672 156.468L69.6733 156.476L70.482 155.888ZM70.482 167.312L69.6682 166.731L69.6614 166.741L70.482 167.312ZM67.89 169.448L68.3158 170.353L68.3215 170.35L67.89 169.448ZM67.17 166.568L67.784 167.357L67.7947 167.349L67.17 166.568ZM67.17 156.632L66.5452 157.413L66.5561 157.421L67.17 156.632ZM61.434 156.632L62.048 157.421L62.0587 157.413L61.434 156.632ZM61.434 166.568L60.8092 167.349L60.8201 167.357L61.434 166.568ZM64.29 169.216C63.1116 169.216 62.0588 168.987 61.1158 168.543L60.2642 170.353C61.4972 170.933 62.8444 171.216 64.29 171.216V169.216ZM61.1266 168.548C60.1738 168.086 59.4453 167.478 58.9117 166.731L57.2843 167.893C58.0307 168.938 59.0302 169.754 60.2534 170.348L61.1266 168.548ZM58.9186 166.741C58.4072 166.006 58.162 165.228 58.162 164.384H56.162C56.162 165.652 56.5408 166.826 57.2774 167.883L58.9186 166.741ZM58.162 164.384V158.792H56.162V164.384H58.162ZM58.162 158.792C58.162 157.948 58.4068 157.181 58.9137 156.466L57.2823 155.31C56.5412 156.355 56.162 157.524 56.162 158.792H58.162ZM58.9117 156.469C59.4432 155.725 60.168 155.127 61.1158 154.681L60.2642 152.871C59.036 153.449 58.0328 154.259 57.2843 155.307L58.9117 156.469ZM61.1266 154.676C62.0672 154.219 63.1162 153.984 64.29 153.984V151.984C62.8398 151.984 61.4888 152.277 60.2534 152.876L61.1266 154.676ZM64.29 153.984C65.4638 153.984 66.5128 154.219 67.4534 154.676L68.3266 152.876C67.0912 152.277 65.7402 151.984 64.29 151.984V153.984ZM67.4693 154.683C68.4315 155.129 69.1499 155.725 69.6614 156.459L71.3026 155.317C70.5661 154.259 69.5565 153.447 68.3107 152.869L67.4693 154.683ZM69.6733 156.476C70.193 157.191 70.442 157.954 70.442 158.792H72.442C72.442 157.518 72.051 156.345 71.2907 155.3L69.6733 156.476ZM70.442 158.792V164.384H72.442V158.792H70.442ZM70.442 164.384C70.442 165.222 70.1926 165.997 69.6683 166.731L71.2957 167.893C72.0514 166.835 72.442 165.658 72.442 164.384H70.442ZM69.6614 166.741C69.1478 167.478 68.4256 168.083 67.4585 168.546L68.3215 170.35C69.5624 169.757 70.5682 168.938 71.3026 167.883L69.6614 166.741ZM67.4642 168.543C66.5212 168.987 65.4684 169.216 64.29 169.216V171.216C65.7356 171.216 67.0828 170.933 68.3158 170.353L67.4642 168.543ZM64.29 168.408C65.642 168.408 66.84 168.092 67.7839 167.357L66.5561 165.779C66.06 166.164 65.338 166.408 64.29 166.408V168.408ZM67.7947 167.349C68.7489 166.586 69.25 165.556 69.25 164.336H67.25C67.25 164.94 67.0311 165.398 66.5453 165.787L67.7947 167.349ZM69.25 164.336V158.864H67.25V164.336H69.25ZM69.25 158.864C69.25 157.634 68.7524 156.596 67.7839 155.843L66.5561 157.421C67.0276 157.788 67.25 158.238 67.25 158.864H69.25ZM67.7947 155.851C66.8501 155.095 65.648 154.768 64.29 154.768V156.768C65.332 156.768 66.0499 157.017 66.5453 157.413L67.7947 155.851ZM64.29 154.768C62.9443 154.768 61.7517 155.097 60.8093 155.851L62.0587 157.413C62.5563 157.015 63.2677 156.768 64.29 156.768V154.768ZM60.8201 155.843C59.8516 156.596 59.354 157.634 59.354 158.864H61.354C61.354 158.238 61.5764 157.788 62.0479 157.421L60.8201 155.843ZM59.354 158.864V164.336H61.354V158.864H59.354ZM59.354 164.336C59.354 165.556 59.8551 166.586 60.8093 167.349L62.0587 165.787C61.5729 165.398 61.354 164.94 61.354 164.336H59.354ZM60.8201 167.357C61.7619 168.09 62.9504 168.408 64.29 168.408V166.408C63.2616 166.408 62.5461 166.166 62.0479 165.779L60.8201 167.357ZM82.7871 169.688L82.4751 170.638L82.4751 170.638L82.7871 169.688ZM80.3151 168.2L79.5545 168.849L79.563 168.859L79.5718 168.869L80.3151 168.2ZM82.1391 163.952L83.1377 163.899L83.0878 162.952H82.1391V163.952ZM83.3631 166.712L82.7245 167.482L82.7325 167.488L83.3631 166.712ZM89.2191 167.072L89.7432 167.924L89.751 167.919L89.7587 167.914L89.2191 167.072ZM89.7951 164.288L89.0102 164.908L89.0184 164.918L89.0268 164.928L89.7951 164.288ZM88.5711 163.496L88.1864 164.419L88.1975 164.424L88.2086 164.428L88.5711 163.496ZM86.0511 162.776L85.8226 163.75L85.8306 163.751L85.8386 163.753L86.0511 162.776ZM82.3311 161.552L81.8838 162.446L81.8902 162.45L82.3311 161.552ZM80.3871 159.944L79.539 160.474L79.5452 160.484L80.3871 159.944ZM80.5791 155.168L79.7946 154.548L79.7902 154.553L79.7858 154.559L80.5791 155.168ZM82.8591 153.56L82.4981 152.627L82.4929 152.629L82.8591 153.56ZM89.5551 153.488L89.2247 154.432L89.2341 154.435L89.2435 154.438L89.5551 153.488ZM91.8351 154.856L91.0987 155.533L91.1036 155.538L91.1086 155.543L91.8351 154.856ZM90.1071 158.744L89.1108 158.831L89.1925 159.77L90.1351 159.744L90.1071 158.744ZM89.0511 156.32L89.6952 155.555L89.6952 155.555L89.0511 156.32ZM83.7951 156.08L83.2736 155.227L83.2736 155.227L83.7951 156.08ZM83.2671 158.696L82.462 159.289L82.4697 159.3L82.4777 159.31L83.2671 158.696ZM84.3951 159.464L84.0045 160.385L84.0165 160.39L84.0285 160.394L84.3951 159.464ZM86.6511 160.112L86.4274 161.087L86.4331 161.088L86.6511 160.112ZM90.5631 161.36L90.1279 162.26L90.1402 162.266L90.5631 161.36ZM92.6511 163.016L91.8158 163.566L91.8222 163.575L92.6511 163.016ZM92.4591 167.96L91.6632 167.354L91.6612 167.357L92.4591 167.96ZM90.1071 169.64L90.4631 170.575L90.4709 170.571L90.1071 169.64ZM86.5551 169.216C85.1932 169.216 84.047 169.049 83.099 168.738L82.4751 170.638C83.6712 171.031 85.0369 171.216 86.5551 171.216V169.216ZM83.099 168.738C82.1428 168.424 81.4868 168.007 81.0584 167.531L79.5718 168.869C80.2953 169.673 81.2873 170.248 82.4751 170.638L83.099 168.738ZM81.0756 167.551C80.6705 167.076 80.4751 166.546 80.4751 165.92H78.4751C78.4751 167.022 78.8397 168.012 79.5545 168.849L81.0756 167.551ZM80.4751 165.92C80.4751 165.514 80.5963 165.351 80.7352 165.248C80.9308 165.104 81.3449 164.952 82.1391 164.952V162.952C81.1572 162.952 80.2393 163.128 79.5469 163.64C78.7978 164.193 78.4751 165.014 78.4751 165.92H80.4751ZM81.1404 164.005C81.2152 165.426 81.7069 166.637 82.7245 167.482L84.0016 165.942C83.5152 165.539 83.1909 164.91 83.1377 163.899L81.1404 164.005ZM82.7325 167.488C83.7371 168.304 85.062 168.648 86.5791 168.648V166.648C85.3441 166.648 84.525 166.368 83.9937 165.936L82.7325 167.488ZM86.5791 168.648C87.8065 168.648 88.8974 168.444 89.7432 167.924L88.695 166.22C88.2928 166.468 87.6236 166.648 86.5791 166.648V168.648ZM89.7587 167.914C90.6513 167.342 91.1551 166.482 91.1551 165.416H89.1551C89.1551 165.758 89.0348 166.002 88.6794 166.23L89.7587 167.914ZM91.1551 165.416C91.1551 164.775 90.9861 164.155 90.5633 163.648L89.0268 164.928C89.084 164.997 89.1551 165.129 89.1551 165.416H91.1551ZM90.5799 163.668C90.1822 163.165 89.5861 162.818 88.9335 162.564L88.2086 164.428C88.708 164.622 88.9279 164.803 89.0102 164.908L90.5799 163.668ZM88.9557 162.573C88.2964 162.298 87.3873 162.043 86.2635 161.799L85.8386 163.753C86.9228 163.989 87.6937 164.214 88.1864 164.419L88.9557 162.573ZM86.2795 161.802C84.7476 161.443 83.5888 161.056 82.772 160.654L81.8902 162.45C82.8973 162.944 84.2185 163.373 85.8226 163.75L86.2795 161.802ZM82.7783 160.658C81.9887 160.263 81.5034 159.832 81.2289 159.404L79.5452 160.484C80.0708 161.304 80.8814 161.945 81.8838 162.446L82.7783 160.658ZM81.2351 159.414C80.9566 158.968 80.7871 158.371 80.7871 157.568H78.7871C78.7871 158.653 79.0176 159.64 79.5391 160.474L81.2351 159.414ZM80.7871 157.568C80.7871 156.864 80.9856 156.281 81.3724 155.777L79.7858 154.559C79.1165 155.431 78.7871 156.448 78.7871 157.568H80.7871ZM81.3635 155.788C81.7782 155.264 82.3813 154.823 83.2252 154.491L82.4929 152.629C81.3848 153.065 80.4679 153.696 79.7946 154.548L81.3635 155.788ZM83.2201 154.493C84.0761 154.161 85.0861 153.984 86.2671 153.984V151.984C84.8881 151.984 83.626 152.191 82.4981 152.627L83.2201 154.493ZM86.2671 153.984C87.4096 153.984 88.3906 154.14 89.2247 154.432L89.8854 152.544C88.7995 152.164 87.5885 151.984 86.2671 151.984V153.984ZM89.2435 154.438C90.101 154.719 90.6984 155.097 91.0987 155.533L92.5714 154.179C91.8837 153.431 90.9611 152.897 89.8666 152.538L89.2435 154.438ZM91.1086 155.543C91.5047 155.962 91.6751 156.4 91.6751 156.896H93.6751C93.6751 155.856 93.2854 154.934 92.5615 154.169L91.1086 155.543ZM91.6751 156.896C91.6751 157.212 91.5809 157.339 91.449 157.434C91.256 157.573 90.8486 157.723 90.079 157.744L90.1351 159.744C91.0775 159.717 91.9541 159.535 92.6172 159.058C93.3412 158.537 93.6751 157.764 93.6751 156.896H91.6751ZM91.1033 158.657C90.9936 157.395 90.5745 156.296 89.6952 155.555L88.4069 157.085C88.7436 157.368 89.0286 157.885 89.1108 158.831L91.1033 158.657ZM89.6952 155.555C88.829 154.826 87.6236 154.552 86.2671 154.552V156.552C87.4066 156.552 88.0571 156.79 88.4069 157.085L89.6952 155.555ZM86.2671 154.552C85.1095 154.552 84.0735 154.738 83.2736 155.227L84.3165 156.933C84.6687 156.718 85.2807 156.552 86.2671 156.552V154.552ZM83.2736 155.227C82.4201 155.748 81.9311 156.557 81.9311 157.568H83.9311C83.9311 157.299 84.018 157.116 84.3165 156.933L83.2736 155.227ZM81.9311 157.568C81.9311 158.188 82.0891 158.783 82.462 159.289L84.0721 158.103C83.9971 158.001 83.9311 157.844 83.9311 157.568H81.9311ZM82.4777 159.31C82.8497 159.788 83.4009 160.129 84.0045 160.385L84.7856 158.543C84.3332 158.351 84.1324 158.18 84.0564 158.082L82.4777 159.31ZM84.0285 160.394C84.6252 160.629 85.4335 160.859 86.4274 161.087L86.8748 159.137C85.9167 158.917 85.2209 158.715 84.7616 158.534L84.0285 160.394ZM86.4331 161.088C88.0442 161.448 89.2652 161.843 90.1279 162.26L90.9982 160.46C89.9409 159.949 88.554 159.512 86.869 159.136L86.4331 161.088ZM90.1402 162.266C90.9891 162.662 91.5153 163.11 91.8159 163.566L93.4862 162.466C92.9228 161.61 92.057 160.954 90.9859 160.454L90.1402 162.266ZM91.8222 163.575C92.12 164.017 92.2991 164.603 92.2991 165.392H94.2991C94.2991 164.293 94.0461 163.295 93.4799 162.457L91.8222 163.575ZM92.2991 165.392C92.2991 166.162 92.0832 166.803 91.6632 167.354L93.2549 168.566C93.955 167.645 94.2991 166.574 94.2991 165.392H92.2991ZM91.6612 167.357C91.2508 167.9 90.6326 168.361 89.7432 168.709L90.4709 170.571C91.6295 170.119 92.5793 169.46 93.2569 168.563L91.6612 167.357ZM89.7511 168.706C88.8821 169.037 87.8238 169.216 86.5551 169.216V171.216C88.0063 171.216 89.316 171.011 90.4631 170.574L89.7511 168.706ZM99.5732 155.984H100.573V154.984H99.5732V155.984ZM93.7892 155.984H92.7892V156.984H93.7892V155.984ZM108.573 153.2H109.573V152.2H108.573V153.2ZM102.789 155.984V154.984H101.789V155.984H102.789ZM101.973 169.616L102.566 170.422L102.573 170.416L102.581 170.41L101.973 169.616ZM99.5732 170.216H98.5732V171.216H99.5732V170.216ZM99.5732 154.984H93.7892V156.984H99.5732V154.984ZM94.7892 155.984C94.7892 155.187 94.9717 154.776 95.1606 154.567C95.3323 154.377 95.6505 154.2 96.3092 154.2V152.2C95.2879 152.2 94.3461 152.487 93.6778 153.225C93.0267 153.944 92.7892 154.925 92.7892 155.984H94.7892ZM96.3092 154.2H108.573V152.2H96.3092V154.2ZM107.573 153.2C107.573 153.995 107.39 154.405 107.199 154.613C107.024 154.805 106.699 154.984 106.029 154.984V156.984C107.056 156.984 108.002 156.699 108.675 155.963C109.333 155.243 109.573 154.261 109.573 153.2H107.573ZM106.029 154.984H102.789V156.984H106.029V154.984ZM101.789 155.984V167.84H103.789V155.984H101.789ZM101.789 167.84C101.789 168.34 101.63 168.62 101.366 168.822L102.581 170.41C103.405 169.78 103.789 168.876 103.789 167.84H101.789ZM101.381 168.81C101.081 169.031 100.528 169.216 99.5732 169.216V171.216C100.73 171.216 101.777 171.001 102.566 170.422L101.381 168.81ZM100.573 170.216V155.984H98.5732V170.216H100.573ZM111.955 153.632L112.551 154.435L112.558 154.429L112.566 154.424L111.955 153.632ZM114.331 152.984H115.331V151.984H114.331V152.984ZM113.491 169.592L112.894 168.789L112.894 168.789L113.491 169.592ZM111.115 170.216H110.115V171.216H111.115V170.216ZM112.115 155.384C112.115 154.92 112.267 154.646 112.551 154.435L111.358 152.829C110.522 153.45 110.115 154.344 110.115 155.384H112.115ZM112.566 154.424C112.887 154.175 113.432 153.984 114.331 153.984V151.984C113.181 151.984 112.142 152.225 111.344 152.84L112.566 154.424ZM113.331 152.984V167.816H115.331V152.984H113.331ZM113.331 167.816C113.331 168.305 113.172 168.583 112.894 168.789L114.087 170.395C114.929 169.769 115.331 168.863 115.331 167.816H113.331ZM112.894 168.789C112.571 169.03 112.02 169.216 111.115 169.216V171.216C112.257 171.216 113.291 170.986 114.087 170.395L112.894 168.789ZM112.115 170.216V155.384H110.115V170.216H112.115ZM118.411 153.68L119.058 154.443L119.065 154.437L119.071 154.431L118.411 153.68ZM120.547 152.984L121.389 152.445L121.094 151.984H120.547V152.984ZM128.659 165.656L127.817 166.195L128.416 167.131L129.284 166.437L128.659 165.656ZM128.899 165.464L129.524 166.245L130.208 165.698L129.756 164.948L128.899 165.464ZM127.915 163.832H126.915V164.11L127.059 164.348L127.915 163.832ZM127.915 152.984V151.984H126.915V152.984H127.915ZM130.267 153.584L129.663 154.381L129.669 154.385L129.675 154.39L130.267 153.584ZM130.315 169.568L129.67 168.804L129.664 168.809L129.658 168.814L130.315 169.568ZM128.587 170.216L127.745 170.755L128.039 171.216H128.587V170.216ZM120.043 156.848L120.886 156.309L120.251 155.316L119.374 156.105L120.043 156.848ZM119.803 157.064L119.134 156.321L118.52 156.873L118.947 157.58L119.803 157.064ZM120.787 158.696H121.787V158.418L121.644 158.18L120.787 158.696ZM119.971 169.616L119.379 168.81L119.373 168.815L119.367 168.819L119.971 169.616ZM117.619 170.216H116.619V171.216H117.619V170.216ZM118.619 155.528C118.619 154.994 118.785 154.674 119.058 154.443L117.764 152.917C116.981 153.582 116.619 154.494 116.619 155.528H118.619ZM119.071 154.431C119.371 154.168 119.825 153.984 120.547 153.984V151.984C119.477 151.984 118.507 152.264 117.751 152.929L119.071 154.431ZM119.705 153.523L127.817 166.195L129.501 165.117L121.389 152.445L119.705 153.523ZM129.284 166.437L129.524 166.245L128.274 164.683L128.034 164.875L129.284 166.437ZM129.756 164.948L128.772 163.316L127.059 164.348L128.043 165.98L129.756 164.948ZM128.915 163.832V152.984H126.915V163.832H128.915ZM127.915 153.984C128.853 153.984 129.383 154.169 129.663 154.381L130.871 152.787C130.095 152.199 129.057 151.984 127.915 151.984V153.984ZM129.675 154.39C129.919 154.569 130.083 154.836 130.083 155.36H132.083C132.083 154.316 131.703 153.399 130.86 152.778L129.675 154.39ZM130.083 155.36V168.032H132.083V155.36H130.083ZM130.083 168.032C130.083 168.289 129.99 168.534 129.67 168.804L130.96 170.332C131.664 169.738 132.083 168.959 132.083 168.032H130.083ZM129.658 168.814C129.344 169.088 129.001 169.216 128.587 169.216V171.216C129.485 171.216 130.294 170.912 130.972 170.322L129.658 168.814ZM129.43 169.677L120.886 156.309L119.201 157.387L127.745 170.755L129.43 169.677ZM119.374 156.105L119.134 156.321L120.472 157.807L120.712 157.591L119.374 156.105ZM118.947 157.58L119.931 159.212L121.644 158.18L120.66 156.548L118.947 157.58ZM119.787 158.696V167.84H121.787V158.696H119.787ZM119.787 167.84C119.787 168.364 119.623 168.631 119.379 168.81L120.564 170.422C121.407 169.801 121.787 168.884 121.787 167.84H119.787ZM119.367 168.819C119.087 169.031 118.557 169.216 117.619 169.216V171.216C118.761 171.216 119.799 171.001 120.575 170.413L119.367 168.819ZM118.619 170.216V155.528H116.619V170.216H118.619ZM134.341 153.632L133.672 152.889L133.662 152.897L133.653 152.906L134.341 153.632ZM146.197 153.2H147.197V152.2H146.197V153.2ZM145.693 155.312L144.893 154.712L144.889 154.717L145.693 155.312ZM137.101 155.96V154.96H136.101V155.96H137.101ZM137.101 160.136H136.101V161.136H137.101V160.136ZM143.485 160.136H144.485V159.136H143.485V160.136ZM142.981 162.248L142.181 161.648L142.177 161.653L142.981 162.248ZM137.101 162.896V161.896H136.101V162.896H137.101ZM137.101 167.24H136.101V168.24H137.101V167.24ZM146.173 167.912L145.359 168.493L145.371 168.51L145.383 168.526L146.173 167.912ZM146.677 170V171H147.677V170H146.677ZM134.341 169.592L133.653 170.318L133.673 170.336L133.693 170.354L134.341 169.592ZM134.885 154.664C134.885 154.553 134.913 154.467 135.028 154.358L133.653 152.906C133.16 153.373 132.885 153.975 132.885 154.664H134.885ZM135.01 154.375C135.138 154.26 135.281 154.2 135.493 154.2V152.2C134.809 152.2 134.183 152.428 133.672 152.889L135.01 154.375ZM135.493 154.2H146.197V152.2H135.493V154.2ZM145.197 153.2C145.197 154.083 145.035 154.522 144.893 154.712L146.493 155.912C147.023 155.206 147.197 154.237 147.197 153.2H145.197ZM144.889 154.717C144.822 154.808 144.654 154.96 144.109 154.96V156.96C145.036 156.96 145.924 156.68 146.496 155.907L144.889 154.717ZM144.109 154.96H137.101V156.96H144.109V154.96ZM136.101 155.96V160.136H138.101V155.96H136.101ZM137.101 161.136H143.485V159.136H137.101V161.136ZM142.485 160.136C142.485 161.019 142.323 161.458 142.181 161.648L143.781 162.848C144.311 162.142 144.485 161.173 144.485 160.136H142.485ZM142.177 161.653C142.11 161.744 141.942 161.896 141.397 161.896V163.896C142.324 163.896 143.212 163.616 143.784 162.843L142.177 161.653ZM141.397 161.896H137.101V163.896H141.397V161.896ZM136.101 162.896V167.24H138.101V162.896H136.101ZM137.101 168.24H144.613V166.24H137.101V168.24ZM144.613 168.24C145.119 168.24 145.282 168.386 145.359 168.493L146.986 167.331C146.423 166.542 145.546 166.24 144.613 166.24V168.24ZM145.383 168.526C145.513 168.693 145.677 169.113 145.677 170H147.677C147.677 168.967 147.505 167.995 146.962 167.298L145.383 168.526ZM146.677 169H135.493V171H146.677V169ZM135.493 169C135.265 169 135.115 168.938 134.988 168.83L133.693 170.354C134.207 170.79 134.825 171 135.493 171V169ZM135.028 168.866C134.922 168.765 134.885 168.675 134.885 168.536H132.885C132.885 169.229 133.151 169.843 133.653 170.318L135.028 168.866ZM134.885 168.536V154.664H132.885V168.536H134.885ZM149.458 153.632L150.125 154.377L150.135 154.368L150.146 154.358L149.458 153.632ZM161.026 154.568L160.331 155.287L160.337 155.293L161.026 154.568ZM161.89 160.808L162.747 161.323L162.753 161.313L161.89 160.808ZM160.138 162.344L159.698 161.446L159.138 161.72V162.344H160.138ZM160.138 162.416H159.138V163.067L159.733 163.33L160.138 162.416ZM161.434 169.616L162.026 170.422L162.034 170.416L162.041 170.41L161.434 169.616ZM159.034 170.216H158.034V171.216H159.034V170.216ZM152.17 163.64V162.64H151.17V163.64H152.17ZM151.354 169.616L150.762 168.81L150.756 168.815L150.75 168.819L151.354 169.616ZM149.002 170.216H148.002V171.216H149.002V170.216ZM158.626 160.256L159.346 160.95L159.353 160.943L159.359 160.936L158.626 160.256ZM152.17 155.936V154.936H151.17V155.936H152.17ZM152.17 160.904H151.17V161.904H152.17V160.904ZM150.002 154.664C150.002 154.526 150.038 154.455 150.125 154.377L148.791 152.887C148.27 153.353 148.002 153.97 148.002 154.664H150.002ZM150.146 154.358C150.243 154.266 150.372 154.2 150.61 154.2V152.2C149.92 152.2 149.281 152.422 148.77 152.906L150.146 154.358ZM150.61 154.2H157.018V152.2H150.61V154.2ZM157.018 154.2C158.571 154.2 159.627 154.607 160.331 155.287L161.721 153.849C160.537 152.705 158.92 152.2 157.018 152.2V154.2ZM160.337 155.293C161.052 155.972 161.466 156.963 161.466 158.408H163.466C163.466 156.557 162.92 154.988 161.715 153.843L160.337 155.293ZM161.466 158.408C161.466 159.217 161.302 159.833 161.027 160.303L162.753 161.313C163.246 160.471 163.466 159.487 163.466 158.408H161.466ZM161.032 160.294C160.764 160.742 160.339 161.132 159.698 161.446L160.578 163.242C161.505 162.788 162.248 162.154 162.747 161.322L161.032 160.294ZM159.138 162.344V162.416H161.138V162.344H159.138ZM159.733 163.33C160.271 163.569 160.629 163.89 160.862 164.283C161.101 164.684 161.25 165.229 161.25 165.968H163.25C163.25 164.963 163.047 164.044 162.581 163.261C162.111 162.47 161.413 161.887 160.543 161.502L159.733 163.33ZM161.25 165.968V167.84H163.25V165.968H161.25ZM161.25 167.84C161.25 168.34 161.091 168.62 160.826 168.822L162.041 170.41C162.865 169.78 163.25 168.876 163.25 167.84H161.25ZM160.842 168.81C160.542 169.031 159.989 169.216 159.034 169.216V171.216C160.191 171.216 161.238 171.001 162.026 170.422L160.842 168.81ZM160.034 170.216V166.112H158.034V170.216H160.034ZM160.034 166.112C160.034 165.166 159.852 164.26 159.296 163.597L157.764 164.883C157.88 165.02 158.034 165.362 158.034 166.112H160.034ZM159.296 163.597C158.714 162.904 157.877 162.64 156.994 162.64V164.64C157.487 164.64 157.674 164.776 157.764 164.883L159.296 163.597ZM156.994 162.64H152.17V164.64H156.994V162.64ZM151.17 163.64V167.84H153.17V163.64H151.17ZM151.17 167.84C151.17 168.364 151.006 168.631 150.762 168.81L151.946 170.422C152.79 169.801 153.17 168.884 153.17 167.84H151.17ZM150.75 168.819C150.47 169.031 149.94 169.216 149.002 169.216V171.216C150.144 171.216 151.182 171.001 151.958 170.413L150.75 168.819ZM150.002 170.216V154.664H148.002V170.216H150.002ZM156.85 161.904C157.809 161.904 158.692 161.629 159.346 160.95L157.906 159.562C157.727 159.747 157.427 159.904 156.85 159.904V161.904ZM159.359 160.936C159.994 160.252 160.25 159.356 160.25 158.384H158.25C158.25 159.012 158.09 159.364 157.893 159.576L159.359 160.936ZM160.25 158.384C160.25 157.419 160.013 156.51 159.364 155.848C158.711 155.182 157.809 154.936 156.85 154.936V156.936C157.491 156.936 157.789 157.098 157.936 157.248C158.087 157.402 158.25 157.717 158.25 158.384H160.25ZM156.85 154.936H152.17V156.936H156.85V154.936ZM151.17 155.936V160.904H153.17V155.936H151.17ZM152.17 161.904H156.85V159.904H152.17V161.904Z" fill="black"/>
</svg>
